<svg xmlns:dc="http://purl.org/dc/elements/1.1/" xmlns:cc="http://creativecommons.org/ns#" xmlns:rdf="http://www.w3.org/1999/02/22-rdf-syntax-ns#" xmlns:svg="http://www.w3.org/2000/svg" xmlns="http://www.w3.org/2000/svg" viewBox="0 0 280 280" fill="none"><metadata><rdf:RDF><cc:Work><dc:format>image/svg+xml</dc:format><dc:type rdf:resource="http://purl.org/dc/dcmitype/StillImage"/><dc:title>Avataaars</dc:title><dc:creator><cc:Agent><dc:title>Pablo Stanley</dc:title></cc:Agent></dc:creator><dc:source>https://avataaars.com/</dc:source><cc:license rdf:resource="https://avataaars.com/"/><dc:contributor><cc:Agent><dc:title>Florian Körner</dc:title></cc:Agent></dc:contributor></cc:Work></rdf:RDF></metadata><mask id="avatarsRadiusMask"><rect width="280" height="280" rx="0" ry="0" x="0" y="0" fill="#fff"/></mask><g mask="url(#avatarsRadiusMask)"><g transform="translate(40, 36)"><path d="M100 0C69.072 0 44 25.072 44 56v6.166c-5.675.952-10 5.888-10 11.834v14c0 6.052 4.48 11.058 10.305 11.881 2.067 19.806 14.458 36.541 31.695 44.73V163h-4c-39.764 0-72 32.236-72 72v9h200v-9c0-39.764-32.236-72-72-72h-4v-18.389c17.237-8.189 29.628-24.924 31.695-44.73C161.52 99.058 166 94.052 166 88V74c0-5.946-4.325-10.882-10-11.834V56c0-30.928-25.072-56-56-56z" fill="#F9D562"/><path d="M76 144.611v8A55.79 55.79 0 00100 158a55.789 55.789 0 0024-5.389v-8A55.789 55.789 0 01100 150a55.79 55.79 0 01-24-5.389z" fill="#000" fill-opacity=".1"/></g><g transform="translate(8, 170)"><path d="M132.5 54c18.502 0 33.5-9.626 33.5-21.5a14.08 14.08 0 00-.376-3.232C202.76 32.138 232 63.18 232 101.052V110H32v-8.948c0-38.217 29.775-69.48 67.393-71.855A14.108 14.108 0 0099 32.5C99 44.374 113.998 54 132.5 54z" fill="#262E33"/><g transform="translate(77, 58)"><path fill-rule="evenodd" clip-rule="evenodd" d="M72.335 18.04c-.18 1.038-.442 2.069-.988 2.989-.72 1.211-2.026 1.706-2.783 2.818-1.193 1.752.392 4.276-.786 5.837-1.266 1.68-4.142.663-5.262 2.891-1.18 2.351.538 5.493-.943 7.83-1.47-.368-1.922-5.885-4.189-2.366-1.452 2.254-.471 3.475-2.648.235-.757-1.125-1.611-2.136-3.097-1.393-1.044.521-1.258 2.837-2.21 3.086-2.333.612-2.418-5.617-3.212-6.796-.436-.648-.842-1.032-1.617-1.277-.672-.213-1.869.215-2.425-.1-1.045-.592-1.186-2.556-1.225-3.598-.074-1.939.575-3.919.04-5.838-.451-1.612-1.887-2.603-2.357-4.183C36.1 9.64 47.683 4.895 54.3 4.63c7.74-.31 19.037 4.222 18.036 13.41zm1.838-5.316c-1.456-3.441-4.655-6.177-7.915-8.013a18.45 18.45 0 00-5.085-1.94c-1.641-.36-3.558-.123-5.125-.576-1.32-.383-2.138-1.243-3.692-1.193-2.118.068-4.319 1.172-6.168 2.086-3.66 1.807-6.771 4.148-8.726 7.743-2.098 3.859-1.9 7.356.349 10.952 2.145 3.434-.974 8.262 2.167 11.526 1.321 1.372 2.621.371 3.872 1.032.962.508.921 3.462 1.188 4.328 1.2 3.893 5.515 5.4 7.506 1.191.94 2.353 4.655 4.764 6.385 1.686 1.082 1.4 2.954 1.995 4.383.796 1.344-1.129 1.492-3.756 1.56-5.344.054-1.238-.497-2.764.454-3.658 1.047-.984 3.194-.57 4.37-1.839 1.34-1.45.789-3.146.892-4.872.104-1.746.416-1.301 1.71-2.562 2.885-2.81 3.374-7.807 1.875-11.343z" fill="#fff"/><path fill-rule="evenodd" clip-rule="evenodd" d="M50.42 29.122c2.02-1.823 1.591-7.398 1.424-9.96-.316-4.86-3.355-3.408-5.206-.38-1.4 2.29-4.766 5.994-3.257 8.876 1.202 2.296 5.18 3.136 7.039 1.463zm13.37-8.849c-1.034-1.92-1.42-2.211-2.65-3.784-.791-1.011-1.9-2.802-3.404-2.442-2.582.62-1.528 6.612-1.498 8.402.024 1.358-.277 2.765.851 3.728 1.155.986 3.053.897 4.44.69 4.259-.633 4.062-3.253 2.262-6.594zM55.24 32.83c-.284-.035.077-.362.12-.587.187.614.325.643-.12.587zm1.045-4.31c-2.617-2.77-7.574 6.397-4.08 7.425.805.237 1.4-.364 2.155-.468 1.1-.153 2.024.487 2.973-.522 1.492-1.584.187-5.098-1.048-6.436z" fill="#fff"/></g></g><g transform="translate(86, 134)"><path d="M28 26.244c1.358.488 2.84.756 4.392.756 5.322 0 9.821-3.153 11.294-7.486 2.475 2.156 6.177 3.525 10.314 3.525 4.137 0 7.84-1.37 10.314-3.525C65.787 23.847 70.286 27 75.608 27c1.552 0 3.034-.268 4.392-.756h-.054l-.063.001h-.06c-6.33 0-11.803-4.9-11.803-10.568 0-4.182 2.32-7.718 5.687-9.677-5.5.797-9.725 4.995-9.898 10.106-2.564 1.736-6.014 2.8-9.809 2.8-3.795 0-7.245-1.064-9.81-2.8-.172-5.11-4.398-9.309-9.896-10.106 3.366 1.959 5.687 5.495 5.687 9.677 0 5.668-5.474 10.568-11.804 10.568H28z" fill="#000" fill-opacity=".6" opacity=".6"/><path d="M17 24a9 9 0 100-18 9 9 0 000 18zm74 0a9 9 0 100-18 9 9 0 000 18z" fill="#FF4646" fill-opacity=".2"/></g><g transform="translate(112, 122)"><path fill-rule="evenodd" clip-rule="evenodd" d="M16 8c0 4.418 5.373 8 12 8s12-3.582 12-8" fill="#000" fill-opacity=".16"/></g><g transform="translate(84, 90)"><path d="M26.998 16c-4.834 0-8.991 2.648-10.838 6.447-.54 1.111.387 1.853 1.277 1.125 2.437-1.993 5.82-3.228 9.56-3.228.082 0 .163 0 .244.002a6 6 0 1010.699 2.8 2 2 0 00-.125-.739 7.55 7.55 0 00-.144-.372 6.007 6.007 0 00-1.646-2.484C33.9 17.317 30.507 16 26.998 16zm58 0c-4.834 0-8.991 2.648-10.838 6.447-.54 1.111.387 1.853 1.278 1.125 2.436-1.993 5.82-3.228 9.56-3.228.08 0 .162 0 .243.002a6 6 0 1010.699 2.8 2 2 0 00-.125-.739 7.55 7.55 0 00-.144-.372 6.007 6.007 0 00-1.646-2.484C91.9 17.317 88.506 16 84.998 16z" fill="#000" fill-opacity=".6"/></g><g transform="translate(84, 82)"><path fill-rule="evenodd" clip-rule="evenodd" d="M36.37 6.876c-1.97 2.905-5.546 4.64-8.738 5.684-3.943 1.29-18.552 3.38-15.112 11.348a.147.147 0 00.272.002c1.153-2.645 17.465-5.123 18.973-5.704 4.445-1.709 8.393-5.49 9.162-10.543.352-2.317-.637-6.049-1.548-7.55-.11-.18-.374-.136-.43.069-.36 1.331-1.41 4.971-2.58 6.694zm39.26 0c1.97 2.905 5.546 4.64 8.738 5.684 3.943 1.29 18.551 3.379 15.112 11.348a.147.147 0 01-.272.002c-1.153-2.645-17.465-5.123-18.973-5.704-4.445-1.709-8.393-5.49-9.162-10.543-.352-2.317.637-6.049 1.548-7.55.11-.18.374-.136.43.069.36 1.331 1.41 4.971 2.58 6.694z" fill="#000" fill-opacity=".6"/></g><g transform="translate(7, 0)"><path d="M187.709 56.124c.892 3.247 2.163 11.95-.072 14.833-.746.962-5.841-1.74-7.966-2.913-1.243-.687-2.415-1.34-3.532-1.963-14.915-8.316-19.735-11.004-45.893-10.623-28.116.409-47.379 13.582-48.462 14.93-.754.937-1.716 3.44-2.508 10.412-.25 2.208-.32 4.97-.39 7.713-.15 5.922-.298 11.76-2.255 11.75-2.44-.013-2.97-23.786-1.917-33.217.04-.352.106-.773.178-1.226.223-1.407.496-3.129.155-4.114-.153-.444-.54-.714-.937-.991-.62-.434-1.265-.884-1.077-2.04.212-1.305 1.092-1.429 1.964-1.551.569-.08 1.135-.16 1.509-.567 1.128-1.228.453-1.867-.318-2.597-.455-.431-.944-.894-1.115-1.53-.634-2.36 1.024-3.094 2.687-3.83l.38-.169c.687-.31 1.103-.416 1.42-.498.593-.152.848-.217 1.886-1.348-2.131-1.563-2.902-3.691.016-4.833.56-.219 1.522-.208 2.5-.198 1.19.013 2.403.026 2.936-.374.148-.111.244-.53.33-.904.06-.264.115-.506.18-.598 1.35-1.931 1.234-3.399 1.078-5.39a59.637 59.637 0 01-.068-.926c-.129-2.038-.112-3.909 2.329-4.112 1.004-.084 1.894.39 2.77.858.544.29 1.083.578 1.641.728.875.235 1.1.435 1.321.432.189-.002.375-.152.958-.553 1.187-.818 1.31-2.05 1.434-3.29.11-1.087.219-2.181 1.042-3.013 1.576-1.59 2.798-.63 3.996.31.643.505 1.28 1.005 1.96 1.1 2.546.355 3.064-1.063 3.622-2.59.367-1.005.752-2.058 1.745-2.681 1.829-1.15 2.647-.048 3.434 1.013.499.672.985 1.327 1.709 1.384 1.004.079 2.506-1.093 3.839-2.133.814-.636 1.565-1.221 2.099-1.442 2.269-.936 3.917.064 5.585 1.077 1.408.855 2.83 1.718 4.652 1.434.298-.046.573-.091.831-.134 2.238-.37 3.107-.513 5.446.962 1.69 1.065 2.52.91 3.738.683.606-.113 1.308-.244 2.26-.251 1.111-.009 1.986.497 2.829.984.693.4 1.365.79 2.13.869.423.044.837-.155 1.259-.357.42-.202.848-.407 1.301-.38 1.827.111 2.688 1.493 3.554 2.884.668 1.072 1.339 2.15 2.46 2.652 1.619.726 3.436.248 5.171-.208.783-.206 1.549-.408 2.274-.493 3.959-.464 3.277 1.968 2.549 4.56-.318 1.132-.644 2.295-.595 3.26 1.148.268 2.305-.153 3.46-.573 1.092-.397 2.183-.794 3.264-.607 3.398.586 2.254 4.021 1.442 6.46l-.074.22c.635-.012 1.538-.205 2.552-.422 2.863-.611 6.619-1.414 7.78 1.129.479 1.051.014 2.31-.44 3.537-.313.847-.62 1.678-.607 2.415.026 1.527.71 2.896 1.396 4.267.455.91.912 1.823 1.175 2.783z" fill="#724133"/><path d="M186.361 73.608c.254.176.427.296.471.32 1.757.99 3.148 10.9 3.216 14.69.042 2.338.079 11.256-2.394 10.485-.753-.235-1.902-4.956-2.066-7.719-.163-2.763-1.733-12.164-4.141-16.49a11.833 11.833 0 00-.526-.814c-.649-.952-1.437-2.109-.919-2.745.722-.887 1.426-.575 2.259-.207.142.062.287.126.436.187.868.35 2.771 1.672 3.664 2.293z" fill="#724133"/></g></g></svg>