<?xml version="1.0" encoding="utf-8"?>
<!-- Generator: Adobe Illustrator 26.0.3, SVG Export Plug-In . SVG Version: 6.00 Build 0)  -->
<svg version="1.1" id="Слой_1" xmlns="http://www.w3.org/2000/svg" xmlns:xlink="http://www.w3.org/1999/xlink" x="0px" y="0px"
	 viewBox="0 0 145.2 40" style="enable-background:new 0 0 145.2 40;" xml:space="preserve">
<style type="text/css">
	.st0{fill:url(#SVGID_1_);}
	.st1{fill:url(#SVGID_00000129182823540904601490000003733976223269352580_);}
	.st2{fill:url(#SVGID_00000096033574123980772310000008814490359568226192_);}
	.st3{fill:#9A98F9;}
	.st4{font-family:'Cambria-Bold';}
	.st5{font-size:19.9556px;}
</style>
<linearGradient id="SVGID_1_" gradientUnits="userSpaceOnUse" x1="15.2945" y1="24.5961" x2="15.2945" y2="12.8313" gradientTransform="matrix(1 0 0 -1 0 39.89)">
	<stop  offset="0" style="stop-color:#BC9CFF"/>
	<stop  offset="1" style="stop-color:#8BA4F9"/>
</linearGradient>
<path class="st0" d="M20,27.1c-0.6,0-1.2-0.5-1.2-1.2c0-4.5-3.7-8.2-8.2-8.2c-0.6,0-1.2-0.5-1.2-1.2c0-0.6,0.5-1.2,1.2-1.2
	c5.9,0,10.6,4.7,10.6,10.6C21.2,26.5,20.6,27.1,20,27.1z"/>
<linearGradient id="SVGID_00000065044500996414068900000017265760690190116512_" gradientUnits="userSpaceOnUse" x1="26.0295" y1="24.5961" x2="26.0295" y2="18.6843" gradientTransform="matrix(1 0 0 -1 0 39.89)">
	<stop  offset="0" style="stop-color:#6FCF97"/>
	<stop  offset="1" style="stop-color:#66D2EA"/>
</linearGradient>
<path style="fill:url(#SVGID_00000065044500996414068900000017265760690190116512_);" d="M30.6,16.5c0,0.6-0.5,1.2-1.2,1.2
	c-2.8,0-5.3,1.4-6.8,3.6c-0.3-0.8-0.7-1.6-1.2-2.3c1.9-2.2,4.8-3.6,7.9-3.6C30.1,15.3,30.6,15.8,30.6,16.5z"/>
<linearGradient id="SVGID_00000065052082714892445020000012850237407026415502_" gradientUnits="userSpaceOnUse" x1="20" y1="39.89" x2="20" y2="-0.11" gradientTransform="matrix(1 0 0 -1 0 39.89)">
	<stop  offset="0" style="stop-color:#BC9CFF"/>
	<stop  offset="1" style="stop-color:#8BA4F9"/>
</linearGradient>
<path style="fill:url(#SVGID_00000065052082714892445020000012850237407026415502_);" d="M20,40C9,40,0,31,0,20S9,0,20,0s20,9,20,20
	S31,40,20,40z M20,2.4C10.3,2.4,2.4,10.3,2.4,20S10.3,37.6,20,37.6S37.6,29.7,37.6,20S29.7,2.4,20,2.4z"/>
<g>
</g>
<g>
</g>
<text transform="matrix(0.9739 0 0 1 43.2988 27.1962)" class="st3 st4 st5">ABSOLUTE</text>
</svg>
