<svg xmlns:dc="http://purl.org/dc/elements/1.1/" xmlns:cc="http://creativecommons.org/ns#" xmlns:rdf="http://www.w3.org/1999/02/22-rdf-syntax-ns#" xmlns:svg="http://www.w3.org/2000/svg" xmlns="http://www.w3.org/2000/svg" viewBox="0 0 280 280" fill="none"><metadata><rdf:RDF><cc:Work><dc:format>image/svg+xml</dc:format><dc:type rdf:resource="http://purl.org/dc/dcmitype/StillImage"/><dc:title>Avataaars</dc:title><dc:creator><cc:Agent><dc:title>Pablo Stanley</dc:title></cc:Agent></dc:creator><dc:source>https://avataaars.com/</dc:source><cc:license rdf:resource="https://avataaars.com/"/><dc:contributor><cc:Agent><dc:title>Florian Körner</dc:title></cc:Agent></dc:contributor></cc:Work></rdf:RDF></metadata><mask id="avatarsRadiusMask"><rect width="280" height="280" rx="140" ry="140" x="0" y="0" fill="#fff"/></mask><g mask="url(#avatarsRadiusMask)"><g transform="translate(40, 36)"><path d="M100 0C69.072 0 44 25.072 44 56v6.166c-5.675.952-10 5.888-10 11.834v14c0 6.052 4.48 11.058 10.305 11.881 2.067 19.806 14.458 36.541 31.695 44.73V163h-4c-39.764 0-72 32.236-72 72v9h200v-9c0-39.764-32.236-72-72-72h-4v-18.389c17.237-8.189 29.628-24.924 31.695-44.73C161.52 99.058 166 94.052 166 88V74c0-5.946-4.325-10.882-10-11.834V56c0-30.928-25.072-56-56-56z" fill="#D08B5B"/><path d="M76 144.611v8A55.79 55.79 0 00100 158a55.789 55.789 0 0024-5.389v-8A55.789 55.789 0 01100 150a55.79 55.79 0 01-24-5.389z" fill="#000" fill-opacity=".1"/></g><g transform="translate(8, 170)"><path d="M92.68 29.936C58.295 35.366 32 65.138 32 101.052V110h200v-8.948c0-35.914-26.294-65.686-60.681-71.116a23.874 23.874 0 01-7.555 13.603l-29.085 26.229a4 4 0 01-5.358 0l-29.085-26.229a23.871 23.871 0 01-7.555-13.603z" fill="#25557C"/></g><g transform="translate(86, 134)"><path fill-rule="evenodd" clip-rule="evenodd" d="M29 15.609C30.41 25.23 41.062 33 54 33c12.968 0 23.646-7.817 25-18.26.101-.4-.225-1.74-2.174-1.74H31.174c-1.79 0-2.304 1.24-2.174 2.609z" fill="#000" fill-opacity=".7"/><path d="M70 13H39a5 5 0 005 5h21a5 5 0 005-5z" fill="#fff"/><path d="M43 23.5l.001.067-.001.063v8.87C43 38.851 48.149 44 54.5 44S66 38.851 66 32.5v-8.87l-.001-.063L66 23.5c0-1.933-2.91-3.5-6.5-3.5-2.01 0-3.808.491-5 1.264-1.192-.773-2.99-1.264-5-1.264-3.59 0-6.5 1.567-6.5 3.5z" fill="#FF4F6D"/></g><g transform="translate(112, 122)"><path fill-rule="evenodd" clip-rule="evenodd" d="M16 8c0 4.418 5.373 8 12 8s12-3.582 12-8" fill="#000" fill-opacity=".16"/></g><g transform="translate(84, 90)"><path d="M36 22a6 6 0 11-12 0 6 6 0 0112 0zm52 0a6 6 0 11-12 0 6 6 0 0112 0z" fill="#000" fill-opacity=".6"/></g><g transform="translate(84, 82)"><path fill-rule="evenodd" clip-rule="evenodd" d="M44.095 17.125c.004-.009.004-.009 0 0zM19.284 5.005c-2.368-.266-4.858.497-6.427 2.434-.59.728-1.553 2.48-1.509 3.417.017.356.225.375 1.124.59 1.646.392 4.5-1.114 6.355-.972 2.582.198 5.046 1.395 7.283 2.679 3.838 2.202 8.354 6.84 13.093 6.598.353-.018 5.42-1.739 4.41-2.723-.316-.484-3.034-1.128-3.501-1.361-2.172-1.084-4.367-2.448-6.443-3.718-4.528-2.772-8.944-6.338-14.385-6.944zm48.746 12.12c-.004-.009-.004-.009 0 0zm24.876-12.12c2.367-.266 4.857.497 6.426 2.434.59.728 1.554 2.48 1.509 3.417-.017.356-.225.375-1.124.59-1.645.392-4.5-1.114-6.355-.972-2.582.198-5.046 1.395-7.282 2.679-3.839 2.202-8.355 6.84-13.093 6.598-.353-.018-5.42-1.739-4.411-2.723.317-.484 3.034-1.128 3.502-1.361 2.171-1.084 4.367-2.448 6.442-3.718 4.528-2.772 8.945-6.338 14.386-6.944z" fill="#000" fill-opacity=".6"/></g><g transform="translate(7, 0)"><path d="M157 180.611V199h4c17.491 0 33.525 6.237 46 16.608V92c0-40.87-33.131-74-74-74-40.87 0-74 33.13-74 74v183.716c13.57-1.94 24-13.61 24-27.716v-45.577A71.952 71.952 0 01105 199h4v-18.389a56.236 56.236 0 01-26-25.365v-61.98c9.147-2.975 18.778-7.249 28.342-12.77 15.403-8.894 28.089-19.555 36.724-30.099a86.935 86.935 0 007.044 15.488c8.768 15.185 21.114 26.349 33.89 32.032v.249c.4.067.794.154 1.18.26.774.323 1.55.626 2.326.91A11.998 11.998 0 01199 110v13c0 6.019-4.431 11.002-10.209 11.867-1.743 20.248-14.26 37.416-31.791 45.744z" fill="#ECDCBF"/><path d="M157 199v-18.389c17.531-8.328 30.048-25.496 31.791-45.744C194.569 134.002 199 129.019 199 123v-13c0-4.643-2.636-8.669-6.494-10.665 4.869 1.773 9.757 2.737 14.494 2.813v113.46C194.525 205.237 178.491 199 161 199h-4zm-74 3.423v-47.177a56.236 56.236 0 0026 25.365V199h-4c-7.673 0-15.065 1.2-22 3.423zM189 97.917v.249c.4.067.794.154 1.18.26a55.343 55.343 0 01-1.18-.509z" fill="#000" fill-opacity=".27"/></g></g></svg>